<svg width="2251" height="575" viewBox="0 0 2251 575" fill="none" xmlns="http://www.w3.org/2000/svg">
<g opacity="0.84">
<path d="M0 61.0759C0 27.3449 27.3451 0 61.076 0H183.228C216.959 0 244.304 27.3439 244.304 61.0759V181.019C244.306 181.752 244.308 182.488 244.308 183.227C244.308 216.91 271.575 244.225 305.238 244.303C305.286 244.303 305.332 244.303 305.38 244.303H427.531C461.262 244.303 488.607 271.648 488.607 305.379V427.531C488.607 461.262 461.262 488.607 427.531 488.607H305.38C271.649 488.607 244.304 461.262 244.304 427.531V305.379C244.304 305.209 244.305 305.041 244.306 304.871C244.032 271.375 216.794 244.303 183.232 244.303C183.074 244.303 182.917 244.303 182.759 244.303H61.077C27.346 244.303 0.00109863 216.958 0.00109863 183.227V61.0759H0Z" fill="white"/>
</g>
<g opacity="0.84">
<mask id="path-2-outside-1_1_38" maskUnits="userSpaceOnUse" x="611.764" y="117.303" width="1620" height="302" fill="black">
<rect fill="white" x="611.764" y="117.303" width="1620" height="302"/>
<path d="M708.344 375.303L614.164 123.703H672.984L720.584 250.863C726.364 266.503 731.124 282.143 736.564 303.903C743.024 279.763 747.784 265.823 753.224 250.863L800.144 123.703H857.604L765.124 375.303H708.344ZM929.169 379.723C877.829 379.723 841.109 342.323 841.109 289.963C841.109 236.923 876.809 199.863 928.149 199.863C981.529 199.863 1014.85 234.883 1014.85 290.303V303.563L891.429 304.243C894.489 326.683 907.069 337.223 930.189 337.223C949.909 337.223 963.849 330.083 967.589 317.843H1015.53C1009.41 355.583 975.749 379.723 929.169 379.723ZM928.489 242.363C907.749 242.363 896.189 251.543 892.109 271.943H962.829C962.829 253.923 949.569 242.363 928.489 242.363ZM1080.4 375.303H1020.9L1078.02 293.023L1020.9 205.303H1081.42L1112.7 256.983L1141.94 205.303H1200.42L1144.32 292.003L1198.38 375.303H1138.2L1108.96 326.343L1080.4 375.303ZM1274.83 379.723C1238.79 379.723 1216.35 358.643 1216.35 325.323C1216.35 294.043 1238.45 274.663 1279.25 271.603L1326.85 267.863V265.143C1326.85 248.483 1316.65 239.643 1297.95 239.643C1275.85 239.643 1263.95 248.143 1263.95 263.443H1220.43C1220.43 225.023 1252.05 199.863 1300.67 199.863C1349.97 199.863 1377.85 227.403 1377.85 276.023V375.303H1331.61L1328.21 352.863C1322.77 368.503 1300.33 379.723 1274.83 379.723ZM1293.19 340.963C1313.25 340.963 1327.19 331.103 1327.19 311.723V302.543L1300.67 304.923C1277.89 306.963 1269.73 312.063 1269.73 322.943C1269.73 335.183 1277.21 340.963 1293.19 340.963ZM1467.77 375.303H1415.41V118.943H1467.77V375.303ZM1558.39 379.723C1522.35 379.723 1499.91 358.643 1499.91 325.323C1499.91 294.043 1522.01 274.663 1562.81 271.603L1610.41 267.863V265.143C1610.41 248.483 1600.21 239.643 1581.51 239.643C1559.41 239.643 1547.51 248.143 1547.51 263.443H1503.99C1503.99 225.023 1535.61 199.863 1584.23 199.863C1633.53 199.863 1661.41 227.403 1661.41 276.023V375.303H1615.17L1611.77 352.863C1606.33 368.503 1583.89 379.723 1558.39 379.723ZM1576.75 340.963C1596.81 340.963 1610.75 331.103 1610.75 311.723V302.543L1584.23 304.923C1561.45 306.963 1553.29 312.063 1553.29 322.943C1553.29 335.183 1560.77 340.963 1576.75 340.963ZM1748.26 375.303H1698.96V118.943H1751.32V225.023C1761.52 209.723 1783.96 199.523 1808.44 199.523C1856.04 199.523 1886.3 236.583 1886.3 292.003C1886.3 344.703 1852.64 379.723 1804.36 379.723C1780.56 379.723 1760.16 369.183 1750.98 353.543L1748.26 375.303ZM1751.66 289.283C1751.66 314.783 1768.66 331.783 1793.14 331.783C1817.96 331.783 1833.6 314.443 1833.6 289.283C1833.6 264.123 1817.96 246.783 1793.14 246.783C1768.66 246.783 1751.66 263.783 1751.66 289.283ZM1904.2 321.583H1953.84C1954.52 333.483 1963.36 340.623 1979.34 340.623C1995.66 340.623 2003.14 334.843 2003.14 326.003C2003.14 320.903 2000.42 315.463 1987.84 312.743L1956.56 305.943C1925.28 299.143 1909.98 285.543 1909.98 255.623C1909.98 220.263 1940.24 199.863 1981.04 199.863C2020.48 199.863 2048.02 222.983 2048.02 257.323H1998.38C1998.38 245.763 1991.24 237.943 1978.66 237.943C1966.76 237.943 1959.28 244.063 1959.28 253.243C1959.28 261.063 1965.74 265.483 1977.64 268.203L2009.26 275.003C2037.14 281.123 2052.44 294.043 2052.44 321.243C2052.44 357.623 2021.5 379.723 1977.3 379.723C1932.42 379.723 1904.2 355.923 1904.2 321.583ZM2080.48 417.803V380.743H2230.42V417.803H2080.48Z"/>
</mask>
<path d="M708.344 375.303L614.164 123.703H672.984L720.584 250.863C726.364 266.503 731.124 282.143 736.564 303.903C743.024 279.763 747.784 265.823 753.224 250.863L800.144 123.703H857.604L765.124 375.303H708.344ZM929.169 379.723C877.829 379.723 841.109 342.323 841.109 289.963C841.109 236.923 876.809 199.863 928.149 199.863C981.529 199.863 1014.85 234.883 1014.85 290.303V303.563L891.429 304.243C894.489 326.683 907.069 337.223 930.189 337.223C949.909 337.223 963.849 330.083 967.589 317.843H1015.53C1009.41 355.583 975.749 379.723 929.169 379.723ZM928.489 242.363C907.749 242.363 896.189 251.543 892.109 271.943H962.829C962.829 253.923 949.569 242.363 928.489 242.363ZM1080.4 375.303H1020.9L1078.02 293.023L1020.9 205.303H1081.42L1112.7 256.983L1141.94 205.303H1200.42L1144.32 292.003L1198.38 375.303H1138.2L1108.96 326.343L1080.4 375.303ZM1274.83 379.723C1238.79 379.723 1216.35 358.643 1216.35 325.323C1216.35 294.043 1238.45 274.663 1279.25 271.603L1326.85 267.863V265.143C1326.85 248.483 1316.65 239.643 1297.95 239.643C1275.85 239.643 1263.95 248.143 1263.95 263.443H1220.43C1220.43 225.023 1252.05 199.863 1300.67 199.863C1349.97 199.863 1377.85 227.403 1377.85 276.023V375.303H1331.61L1328.21 352.863C1322.77 368.503 1300.33 379.723 1274.83 379.723ZM1293.19 340.963C1313.25 340.963 1327.19 331.103 1327.19 311.723V302.543L1300.67 304.923C1277.89 306.963 1269.73 312.063 1269.73 322.943C1269.73 335.183 1277.21 340.963 1293.19 340.963ZM1467.77 375.303H1415.41V118.943H1467.77V375.303ZM1558.39 379.723C1522.35 379.723 1499.91 358.643 1499.91 325.323C1499.91 294.043 1522.01 274.663 1562.81 271.603L1610.41 267.863V265.143C1610.41 248.483 1600.21 239.643 1581.51 239.643C1559.41 239.643 1547.51 248.143 1547.51 263.443H1503.99C1503.99 225.023 1535.61 199.863 1584.23 199.863C1633.53 199.863 1661.41 227.403 1661.41 276.023V375.303H1615.17L1611.77 352.863C1606.33 368.503 1583.89 379.723 1558.39 379.723ZM1576.75 340.963C1596.81 340.963 1610.75 331.103 1610.75 311.723V302.543L1584.23 304.923C1561.45 306.963 1553.29 312.063 1553.29 322.943C1553.29 335.183 1560.77 340.963 1576.75 340.963ZM1748.26 375.303H1698.96V118.943H1751.32V225.023C1761.52 209.723 1783.96 199.523 1808.44 199.523C1856.04 199.523 1886.3 236.583 1886.3 292.003C1886.3 344.703 1852.64 379.723 1804.36 379.723C1780.56 379.723 1760.16 369.183 1750.98 353.543L1748.26 375.303ZM1751.66 289.283C1751.66 314.783 1768.66 331.783 1793.14 331.783C1817.96 331.783 1833.6 314.443 1833.6 289.283C1833.6 264.123 1817.96 246.783 1793.14 246.783C1768.66 246.783 1751.66 263.783 1751.66 289.283ZM1904.2 321.583H1953.84C1954.52 333.483 1963.36 340.623 1979.34 340.623C1995.66 340.623 2003.14 334.843 2003.14 326.003C2003.14 320.903 2000.42 315.463 1987.84 312.743L1956.56 305.943C1925.28 299.143 1909.98 285.543 1909.98 255.623C1909.98 220.263 1940.24 199.863 1981.04 199.863C2020.48 199.863 2048.02 222.983 2048.02 257.323H1998.38C1998.38 245.763 1991.24 237.943 1978.66 237.943C1966.76 237.943 1959.28 244.063 1959.28 253.243C1959.28 261.063 1965.74 265.483 1977.64 268.203L2009.26 275.003C2037.14 281.123 2052.44 294.043 2052.44 321.243C2052.44 357.623 2021.5 379.723 1977.3 379.723C1932.42 379.723 1904.2 355.923 1904.2 321.583ZM2080.48 417.803V380.743H2230.42V417.803H2080.48Z" fill="white"/>
<path d="M708.344 375.303L707.408 375.654L707.651 376.303H708.344V375.303ZM614.164 123.703V122.703H612.722L613.228 124.054L614.164 123.703ZM672.984 123.703L673.921 123.352L673.677 122.703H672.984V123.703ZM720.584 250.863L721.522 250.516L721.521 250.512L720.584 250.863ZM736.564 303.903L735.594 304.146L736.531 307.894L737.53 304.161L736.564 303.903ZM753.224 250.863L752.286 250.517L752.284 250.521L753.224 250.863ZM800.144 123.703V122.703H799.447L799.206 123.357L800.144 123.703ZM857.604 123.703L858.543 124.048L859.037 122.703H857.604V123.703ZM765.124 375.303V376.303H765.822L766.063 375.648L765.124 375.303ZM708.344 375.303L709.281 374.952L615.101 123.352L614.164 123.703L613.228 124.054L707.408 375.654L708.344 375.303ZM614.164 123.703V124.703H672.984V123.703V122.703H614.164V123.703ZM672.984 123.703L672.048 124.054L719.648 251.214L720.584 250.863L721.521 250.512L673.921 123.352L672.984 123.703ZM720.584 250.863L719.646 251.21C725.411 266.808 730.161 282.412 735.594 304.146L736.564 303.903L737.534 303.66C732.087 281.874 727.317 266.198 721.522 250.516L720.584 250.863ZM736.564 303.903L737.53 304.161C743.981 280.055 748.732 266.143 754.164 251.205L753.224 250.863L752.284 250.521C746.836 265.503 742.067 279.471 735.598 303.644L736.564 303.903ZM753.224 250.863L754.162 251.209L801.082 124.049L800.144 123.703L799.206 123.357L752.286 250.517L753.224 250.863ZM800.144 123.703V124.703H857.604V123.703V122.703H800.144V123.703ZM857.604 123.703L856.665 123.358L764.185 374.958L765.124 375.303L766.063 375.648L858.543 124.048L857.604 123.703ZM765.124 375.303V374.303H708.344V375.303V376.303H765.124V375.303ZM1014.85 303.563L1014.85 304.563L1015.85 304.557V303.563H1014.85ZM891.429 304.243L891.423 303.243L890.284 303.249L890.438 304.378L891.429 304.243ZM967.589 317.843V316.843H966.849L966.632 317.551L967.589 317.843ZM1015.53 317.843L1016.52 318.003L1016.7 316.843H1015.53V317.843ZM892.109 271.943L891.128 271.747L890.889 272.943H892.109V271.943ZM962.829 271.943V272.943H963.829V271.943H962.829ZM929.169 379.723V378.723C878.399 378.723 842.109 341.789 842.109 289.963H841.109H840.109C840.109 342.857 877.259 380.723 929.169 380.723V379.723ZM841.109 289.963H842.109C842.109 263.671 850.954 241.405 866.096 225.717C881.235 210.033 902.728 200.863 928.149 200.863V199.863V198.863C902.229 198.863 880.202 208.223 864.657 224.328C849.114 240.431 840.109 263.215 840.109 289.963H841.109ZM928.149 199.863V200.863C954.613 200.863 976.01 209.538 990.794 224.992C1005.58 240.45 1013.85 262.793 1013.85 290.303H1014.85H1015.85C1015.85 262.393 1007.46 239.516 992.239 223.609C977.017 207.698 955.064 198.863 928.149 198.863V199.863ZM1014.85 290.303H1013.85V303.563H1014.85H1015.85V290.303H1014.85ZM1014.85 303.563L1014.84 302.563L891.423 303.243L891.429 304.243L891.434 305.243L1014.85 304.563L1014.85 303.563ZM891.429 304.243L890.438 304.378C891.989 315.755 895.976 324.262 902.64 329.911C909.298 335.555 918.486 338.223 930.189 338.223V337.223V336.223C918.772 336.223 910.109 333.621 903.933 328.385C897.762 323.154 893.928 315.171 892.42 304.108L891.429 304.243ZM930.189 337.223V338.223C950.055 338.223 964.608 331.021 968.545 318.135L967.589 317.843L966.632 317.551C963.09 329.144 949.763 336.223 930.189 336.223V337.223ZM967.589 317.843V318.843H1015.53V317.843V316.843H967.589V317.843ZM1015.53 317.843L1014.54 317.683C1008.52 354.802 975.411 378.723 929.169 378.723V379.723V380.723C976.087 380.723 1010.3 356.364 1016.52 318.003L1015.53 317.843ZM928.489 242.363V241.363C917.978 241.363 909.651 243.689 903.423 248.725C897.192 253.763 893.197 261.401 891.128 271.747L892.109 271.943L893.089 272.139C895.1 262.085 898.926 254.933 904.68 250.281C910.436 245.626 918.26 243.363 928.489 243.363V242.363ZM892.109 271.943V272.943H962.829V271.943V270.943H892.109V271.943ZM962.829 271.943H963.829C963.829 262.671 960.408 254.989 954.218 249.639C948.043 244.302 939.205 241.363 928.489 241.363V242.363V243.363C938.853 243.363 947.185 246.204 952.91 251.152C958.619 256.087 961.829 263.195 961.829 271.943H962.829ZM1080.4 375.303V376.303H1080.98L1081.27 375.807L1080.4 375.303ZM1020.9 375.303L1020.08 374.733L1018.99 376.303H1020.9V375.303ZM1078.02 293.023L1078.84 293.593L1079.23 293.041L1078.86 292.477L1078.02 293.023ZM1020.9 205.303V204.303H1019.06L1020.06 205.849L1020.9 205.303ZM1081.42 205.303L1082.28 204.785L1081.99 204.303H1081.42V205.303ZM1112.7 256.983L1111.85 257.501L1112.73 258.962L1113.57 257.475L1112.7 256.983ZM1141.94 205.303V204.303H1141.36L1141.07 204.811L1141.94 205.303ZM1200.42 205.303L1201.26 205.846L1202.26 204.303H1200.42V205.303ZM1144.32 292.003L1143.48 291.46L1143.13 292.004L1143.48 292.547L1144.32 292.003ZM1198.38 375.303V376.303H1200.22L1199.22 374.759L1198.38 375.303ZM1138.2 375.303L1137.34 375.816L1137.63 376.303H1138.2V375.303ZM1108.96 326.343L1109.82 325.83L1108.95 324.376L1108.1 325.839L1108.96 326.343ZM1080.4 375.303V374.303H1020.9V375.303V376.303H1080.4V375.303ZM1020.9 375.303L1021.72 375.873L1078.84 293.593L1078.02 293.023L1077.2 292.453L1020.08 374.733L1020.9 375.303ZM1078.02 293.023L1078.86 292.477L1021.74 204.757L1020.9 205.303L1020.06 205.849L1077.18 293.569L1078.02 293.023ZM1020.9 205.303V206.303H1081.42V205.303V204.303H1020.9V205.303ZM1081.42 205.303L1080.57 205.821L1111.85 257.501L1112.7 256.983L1113.56 256.465L1082.28 204.785L1081.42 205.303ZM1112.7 256.983L1113.57 257.475L1142.81 205.795L1141.94 205.303L1141.07 204.811L1111.83 256.491L1112.7 256.983ZM1141.94 205.303V206.303H1200.42V205.303V204.303H1141.94V205.303ZM1200.42 205.303L1199.58 204.76L1143.48 291.46L1144.32 292.003L1145.16 292.546L1201.26 205.846L1200.42 205.303ZM1144.32 292.003L1143.48 292.547L1197.54 375.847L1198.38 375.303L1199.22 374.759L1145.16 291.459L1144.32 292.003ZM1198.38 375.303V374.303H1138.2V375.303V376.303H1198.38V375.303ZM1138.2 375.303L1139.06 374.79L1109.82 325.83L1108.96 326.343L1108.1 326.856L1137.34 375.816L1138.2 375.303ZM1108.96 326.343L1108.1 325.839L1079.54 374.799L1080.4 375.303L1081.27 375.807L1109.83 326.847L1108.96 326.343ZM1279.25 271.603L1279.33 272.6L1279.33 272.6L1279.25 271.603ZM1326.85 267.863L1326.93 268.86L1327.85 268.787V267.863H1326.85ZM1263.95 263.443V264.443H1264.95V263.443H1263.95ZM1220.43 263.443H1219.43V264.443H1220.43V263.443ZM1377.85 375.303V376.303H1378.85V375.303H1377.85ZM1331.61 375.303L1330.62 375.453L1330.75 376.303H1331.61V375.303ZM1328.21 352.863L1329.2 352.713L1327.27 352.534L1328.21 352.863ZM1327.19 302.543H1328.19V301.449L1327.1 301.547L1327.19 302.543ZM1300.67 304.923L1300.76 305.919H1300.76L1300.67 304.923ZM1274.83 379.723V378.723C1257 378.723 1242.65 373.512 1232.76 364.287C1222.88 355.069 1217.35 341.75 1217.35 325.323H1216.35H1215.35C1215.35 342.216 1221.05 356.097 1231.39 365.749C1241.73 375.394 1256.62 380.723 1274.83 380.723V379.723ZM1216.35 325.323H1217.35C1217.35 309.941 1222.77 297.566 1233.15 288.639C1243.56 279.687 1259.06 274.121 1279.33 272.6L1279.25 271.603L1279.18 270.606C1258.65 272.145 1242.69 277.799 1231.85 287.122C1220.98 296.47 1215.35 309.425 1215.35 325.323H1216.35ZM1279.25 271.603L1279.33 272.6L1326.93 268.86L1326.85 267.863L1326.77 266.866L1279.17 270.606L1279.25 271.603ZM1326.85 267.863H1327.85V265.143H1326.85H1325.85V267.863H1326.85ZM1326.85 265.143H1327.85C1327.85 256.603 1325.23 249.922 1320.07 245.394C1314.94 240.885 1307.44 238.643 1297.95 238.643V239.643V240.643C1307.16 240.643 1314.11 242.821 1318.75 246.897C1323.37 250.954 1325.85 257.023 1325.85 265.143H1326.85ZM1297.95 239.643V238.643C1286.8 238.643 1278.06 240.784 1272.09 244.988C1266.06 249.228 1262.95 255.496 1262.95 263.443H1263.95H1264.95C1264.95 256.09 1267.79 250.458 1273.24 246.623C1278.74 242.752 1287.01 240.643 1297.95 240.643V239.643ZM1263.95 263.443V262.443H1220.43V263.443V264.443H1263.95V263.443ZM1220.43 263.443H1221.43C1221.43 244.534 1229.2 228.929 1242.94 218.029C1256.7 207.111 1276.52 200.863 1300.67 200.863V199.863V198.863C1276.2 198.863 1255.9 205.195 1241.7 216.462C1227.47 227.747 1219.43 243.932 1219.43 263.443H1220.43ZM1300.67 199.863V200.863C1325.14 200.863 1344.15 207.694 1357.05 220.422C1369.94 233.148 1376.85 251.902 1376.85 276.023H1377.85H1378.85C1378.85 251.524 1371.82 232.198 1358.45 218.999C1345.08 205.802 1325.5 198.863 1300.67 198.863V199.863ZM1377.85 276.023H1376.85V375.303H1377.85H1378.85V276.023H1377.85ZM1377.85 375.303V374.303H1331.61V375.303V376.303H1377.85V375.303ZM1331.61 375.303L1332.6 375.153L1329.2 352.713L1328.21 352.863L1327.22 353.013L1330.62 375.453L1331.61 375.303ZM1328.21 352.863L1327.27 352.534C1324.66 360.024 1317.93 366.574 1308.6 371.264C1299.27 375.947 1287.44 378.723 1274.83 378.723V379.723V380.723C1287.72 380.723 1299.86 377.889 1309.49 373.052C1319.11 368.222 1326.32 361.342 1329.16 353.191L1328.21 352.863ZM1293.19 340.963V341.963C1303.37 341.963 1312.12 339.462 1318.35 334.385C1324.6 329.285 1328.19 321.675 1328.19 311.723H1327.19H1326.19C1326.19 321.151 1322.81 328.161 1317.08 332.836C1311.32 337.534 1303.07 339.963 1293.19 339.963V340.963ZM1327.19 311.723H1328.19V302.543H1327.19H1326.19V311.723H1327.19ZM1327.19 302.543L1327.1 301.547L1300.58 303.927L1300.67 304.923L1300.76 305.919L1327.28 303.539L1327.19 302.543ZM1300.67 304.923L1300.58 303.927C1289.17 304.949 1281.24 306.746 1276.15 309.757C1273.58 311.277 1271.71 313.119 1270.49 315.343C1269.27 317.563 1268.73 320.097 1268.73 322.943H1269.73H1270.73C1270.73 320.349 1271.22 318.165 1272.24 316.306C1273.26 314.45 1274.85 312.849 1277.17 311.479C1281.85 308.71 1289.39 306.937 1300.76 305.919L1300.67 304.923ZM1269.73 322.943H1268.73C1268.73 329.279 1270.68 334.12 1274.86 337.336C1278.98 340.508 1285.11 341.963 1293.19 341.963V340.963V339.963C1285.29 339.963 1279.69 338.528 1276.08 335.75C1272.52 333.015 1270.73 328.847 1270.73 322.943H1269.73ZM1467.77 375.303V376.303H1468.77V375.303H1467.77ZM1415.41 375.303H1414.41V376.303H1415.41V375.303ZM1415.41 118.943V117.943H1414.41V118.943H1415.41ZM1467.77 118.943H1468.77V117.943H1467.77V118.943ZM1467.77 375.303V374.303H1415.41V375.303V376.303H1467.77V375.303ZM1415.41 375.303H1416.41V118.943H1415.41H1414.41V375.303H1415.41ZM1415.41 118.943V119.943H1467.77V118.943V117.943H1415.41V118.943ZM1467.77 118.943H1466.77V375.303H1467.77H1468.77V118.943H1467.77ZM1562.81 271.603L1562.88 272.6L1562.88 272.6L1562.81 271.603ZM1610.41 267.863L1610.48 268.86L1611.41 268.787V267.863H1610.41ZM1547.51 263.443V264.443H1548.51V263.443H1547.51ZM1503.99 263.443H1502.99V264.443H1503.99V263.443ZM1661.41 375.303V376.303H1662.41V375.303H1661.41ZM1615.17 375.303L1614.18 375.453L1614.31 376.303H1615.17V375.303ZM1611.77 352.863L1612.76 352.713L1610.82 352.534L1611.77 352.863ZM1610.75 302.543H1611.75V301.449L1610.66 301.547L1610.75 302.543ZM1584.23 304.923L1584.32 305.919H1584.32L1584.23 304.923ZM1558.39 379.723V378.723C1540.56 378.723 1526.2 373.512 1516.31 364.287C1506.43 355.069 1500.91 341.75 1500.91 325.323H1499.91H1498.91C1498.91 342.216 1504.6 356.097 1514.95 365.749C1525.29 375.394 1540.17 380.723 1558.39 380.723V379.723ZM1499.91 325.323H1500.91C1500.91 309.941 1506.33 297.566 1516.71 288.639C1527.12 279.687 1542.61 274.121 1562.88 272.6L1562.81 271.603L1562.73 270.606C1542.2 272.145 1526.25 277.799 1515.4 287.122C1504.53 296.47 1498.91 309.425 1498.91 325.323H1499.91ZM1562.81 271.603L1562.88 272.6L1610.48 268.86L1610.41 267.863L1610.33 266.866L1562.73 270.606L1562.81 271.603ZM1610.41 267.863H1611.41V265.143H1610.41H1609.41V267.863H1610.41ZM1610.41 265.143H1611.41C1611.41 256.603 1608.78 249.922 1603.63 245.394C1598.49 240.885 1591 238.643 1581.51 238.643V239.643V240.643C1590.72 240.643 1597.67 242.821 1602.31 246.897C1606.93 250.954 1609.41 257.023 1609.41 265.143H1610.41ZM1581.51 239.643V238.643C1570.35 238.643 1561.62 240.784 1555.64 244.988C1549.62 249.228 1546.51 255.496 1546.51 263.443H1547.51H1548.51C1548.51 256.09 1551.35 250.458 1556.79 246.623C1562.3 242.752 1570.56 240.643 1581.51 240.643V239.643ZM1547.51 263.443V262.443H1503.99V263.443V264.443H1547.51V263.443ZM1503.99 263.443H1504.99C1504.99 244.534 1512.76 228.929 1526.5 218.029C1540.26 207.111 1560.08 200.863 1584.23 200.863V199.863V198.863C1559.75 198.863 1539.46 205.195 1525.25 216.462C1511.03 227.747 1502.99 243.932 1502.99 263.443H1503.99ZM1584.23 199.863V200.863C1608.69 200.863 1627.71 207.694 1640.6 220.422C1653.49 233.148 1660.41 251.902 1660.41 276.023H1661.41H1662.41C1662.41 251.524 1655.38 232.198 1642.01 218.999C1628.64 205.802 1609.06 198.863 1584.23 198.863V199.863ZM1661.41 276.023H1660.41V375.303H1661.41H1662.41V276.023H1661.41ZM1661.41 375.303V374.303H1615.17V375.303V376.303H1661.41V375.303ZM1615.17 375.303L1616.16 375.153L1612.76 352.713L1611.77 352.863L1610.78 353.013L1614.18 375.453L1615.17 375.303ZM1611.77 352.863L1610.82 352.534C1608.22 360.024 1601.49 366.574 1592.15 371.264C1582.83 375.947 1571 378.723 1558.39 378.723V379.723V380.723C1571.28 380.723 1583.42 377.889 1593.05 373.052C1602.66 368.222 1609.88 361.342 1612.71 353.191L1611.77 352.863ZM1576.75 340.963V341.963C1586.93 341.963 1595.68 339.462 1601.9 334.385C1608.15 329.285 1611.75 321.675 1611.75 311.723H1610.75H1609.75C1609.75 321.151 1606.37 328.161 1600.64 332.836C1594.88 337.534 1586.63 339.963 1576.75 339.963V340.963ZM1610.75 311.723H1611.75V302.543H1610.75H1609.75V311.723H1610.75ZM1610.75 302.543L1610.66 301.547L1584.14 303.927L1584.23 304.923L1584.32 305.919L1610.84 303.539L1610.75 302.543ZM1584.23 304.923L1584.14 303.927C1572.73 304.949 1564.8 306.746 1559.71 309.757C1557.14 311.277 1555.26 313.119 1554.04 315.343C1552.82 317.563 1552.29 320.097 1552.29 322.943H1553.29H1554.29C1554.29 320.349 1554.77 318.165 1555.79 316.306C1556.81 314.45 1558.4 312.849 1560.72 311.479C1565.4 308.71 1572.95 306.937 1584.32 305.919L1584.23 304.923ZM1553.29 322.943H1552.29C1552.29 329.279 1554.23 334.12 1558.41 337.336C1562.54 340.508 1568.67 341.963 1576.75 341.963V340.963V339.963C1568.84 339.963 1563.24 338.528 1559.63 335.75C1556.08 333.015 1554.29 328.847 1554.29 322.943H1553.29ZM1748.26 375.303V376.303H1749.14L1749.25 375.427L1748.26 375.303ZM1698.96 375.303H1697.96V376.303H1698.96V375.303ZM1698.96 118.943V117.943H1697.96V118.943H1698.96ZM1751.32 118.943H1752.32V117.943H1751.32V118.943ZM1751.32 225.023H1750.32V228.326L1752.15 225.578L1751.32 225.023ZM1750.98 353.543L1751.84 353.037L1750.35 350.499L1749.99 353.419L1750.98 353.543ZM1748.26 375.303V374.303H1698.96V375.303V376.303H1748.26V375.303ZM1698.96 375.303H1699.96V118.943H1698.96H1697.96V375.303H1698.96ZM1698.96 118.943V119.943H1751.32V118.943V117.943H1698.96V118.943ZM1751.32 118.943H1750.32V225.023H1751.32H1752.32V118.943H1751.32ZM1751.32 225.023L1752.15 225.578C1762.11 210.638 1784.18 200.523 1808.44 200.523V199.523V198.523C1783.74 198.523 1760.93 208.808 1750.49 224.468L1751.32 225.023ZM1808.44 199.523V200.523C1831.96 200.523 1851.14 209.668 1864.45 225.621C1877.78 241.593 1885.3 264.467 1885.3 292.003H1886.3H1887.3C1887.3 264.119 1879.69 240.753 1865.99 224.34C1852.27 207.908 1832.52 198.523 1808.44 198.523V199.523ZM1886.3 292.003H1885.3C1885.3 318.138 1876.96 339.81 1862.71 354.94C1848.46 370.065 1828.25 378.723 1804.36 378.723V379.723V380.723C1828.75 380.723 1849.51 371.871 1864.16 356.311C1878.81 340.756 1887.3 318.567 1887.3 292.003H1886.3ZM1804.36 379.723V378.723C1780.82 378.723 1760.8 368.298 1751.84 353.037L1750.98 353.543L1750.12 354.049C1759.52 370.068 1780.3 380.723 1804.36 380.723V379.723ZM1750.98 353.543L1749.99 353.419L1747.27 375.179L1748.26 375.303L1749.25 375.427L1751.97 353.667L1750.98 353.543ZM1751.66 289.283H1750.66C1750.66 302.26 1754.99 313.148 1762.51 320.796C1770.03 328.446 1780.66 332.783 1793.14 332.783V331.783V330.783C1781.14 330.783 1771.04 326.62 1763.93 319.395C1756.83 312.168 1752.66 301.806 1752.66 289.283H1751.66ZM1793.14 331.783V332.783C1805.79 332.783 1816.18 328.356 1823.41 320.652C1830.62 312.955 1834.6 302.07 1834.6 289.283H1833.6H1832.6C1832.6 301.656 1828.76 312.021 1821.95 319.284C1815.15 326.54 1805.31 330.783 1793.14 330.783V331.783ZM1833.6 289.283H1834.6C1834.6 276.496 1830.62 265.611 1823.41 257.914C1816.18 250.21 1805.79 245.783 1793.14 245.783V246.783V247.783C1805.31 247.783 1815.15 252.026 1821.95 259.282C1828.76 266.545 1832.6 276.91 1832.6 289.283H1833.6ZM1793.14 246.783V245.783C1780.66 245.783 1770.03 250.12 1762.51 257.77C1754.99 265.418 1750.66 276.306 1750.66 289.283H1751.66H1752.66C1752.66 276.76 1756.83 266.398 1763.93 259.171C1771.04 251.946 1781.14 247.783 1793.14 247.783V246.783ZM1904.2 321.583V320.583H1903.2V321.583H1904.2ZM1953.84 321.583L1954.84 321.526L1954.79 320.583H1953.84V321.583ZM1987.84 312.743L1987.63 313.72L1987.63 313.72L1987.84 312.743ZM1956.56 305.943L1956.77 304.966V304.966L1956.56 305.943ZM2048.02 257.323V258.323H2049.02V257.323H2048.02ZM1998.38 257.323H1997.38V258.323H1998.38V257.323ZM1977.64 268.203L1977.42 269.178L1977.43 269.181L1977.64 268.203ZM2009.26 275.003L2009.48 274.026L2009.47 274.025L2009.26 275.003ZM1904.2 321.583V322.583H1953.84V321.583V320.583H1904.2V321.583ZM1953.84 321.583L1952.84 321.64C1953.2 327.846 1955.7 332.891 1960.25 336.361C1964.77 339.809 1971.22 341.623 1979.34 341.623V340.623V339.623C1971.49 339.623 1965.52 337.867 1961.46 334.77C1957.43 331.695 1955.16 327.22 1954.84 321.526L1953.84 321.583ZM1979.34 340.623V341.623C1987.59 341.623 1993.77 340.166 1997.91 337.466C2002.11 334.727 2004.14 330.754 2004.14 326.003H2003.14H2002.14C2002.14 330.092 2000.44 333.429 1996.81 335.79C1993.14 338.19 1987.41 339.623 1979.34 339.623V340.623ZM2003.14 326.003H2004.14C2004.14 323.257 2003.4 320.351 2000.93 317.787C1998.49 315.251 1994.45 313.148 1988.05 311.766L1987.84 312.743L1987.63 313.72C1993.82 315.058 1997.43 317.035 1999.49 319.174C2001.52 321.285 2002.14 323.649 2002.14 326.003H2003.14ZM1987.84 312.743L1988.05 311.766L1956.77 304.966L1956.56 305.943L1956.35 306.92L1987.63 313.72L1987.84 312.743ZM1956.56 305.943L1956.77 304.966C1941.21 301.583 1929.79 296.54 1922.26 288.757C1914.75 281.005 1910.98 270.405 1910.98 255.623H1909.98H1908.98C1908.98 270.761 1912.86 281.921 1920.82 290.149C1928.76 298.346 1940.63 303.503 1956.35 306.92L1956.56 305.943ZM1909.98 255.623H1910.98C1910.98 238.264 1918.39 224.617 1930.81 215.282C1943.26 205.926 1960.79 200.863 1981.04 200.863V199.863V198.863C1960.49 198.863 1942.49 204 1929.61 213.684C1916.7 223.389 1908.98 237.622 1908.98 255.623H1909.98ZM1981.04 199.863V200.863C2000.57 200.863 2017.07 206.586 2028.67 216.476C2040.26 226.355 2047.02 240.44 2047.02 257.323H2048.02H2049.02C2049.02 239.866 2042.01 225.22 2029.97 214.954C2017.94 204.7 2000.95 198.863 1981.04 198.863V199.863ZM2048.02 257.323V256.323H1998.38V257.323V258.323H2048.02V257.323ZM1998.38 257.323H1999.38C1999.38 251.337 1997.53 246.219 1993.95 242.595C1990.37 238.968 1985.16 236.943 1978.66 236.943V237.943V238.943C1984.74 238.943 1989.39 240.828 1992.53 244.001C1995.66 247.177 1997.38 251.749 1997.38 257.323H1998.38ZM1978.66 237.943V236.943C1972.55 236.943 1967.46 238.514 1963.89 241.369C1960.28 244.24 1958.28 248.356 1958.28 253.243H1959.28H1960.28C1960.28 248.95 1962.02 245.416 1965.13 242.932C1968.27 240.432 1972.87 238.943 1978.66 238.943V237.943ZM1959.28 253.243H1958.28C1958.28 257.485 1960.06 260.827 1963.38 263.424C1966.66 265.98 1971.42 267.806 1977.42 269.178L1977.64 268.203L1977.86 267.228C1971.97 265.88 1967.54 264.136 1964.61 261.847C1961.73 259.599 1960.28 256.821 1960.28 253.243H1959.28ZM1977.64 268.203L1977.43 269.181L2009.05 275.981L2009.26 275.003L2009.47 274.025L1977.85 267.225L1977.64 268.203ZM2009.26 275.003L2009.05 275.98C2022.9 279.021 2033.48 283.722 2040.59 290.921C2047.68 298.089 2051.44 307.845 2051.44 321.243H2052.44H2053.44C2053.44 307.441 2049.55 297.137 2042.02 289.515C2034.51 281.924 2023.5 277.105 2009.48 274.026L2009.26 275.003ZM2052.44 321.243H2051.44C2051.44 339.116 2043.86 353.443 2030.84 363.329C2017.8 373.235 1999.25 378.723 1977.3 378.723V379.723V380.723C1999.56 380.723 2018.57 375.161 2032.05 364.922C2045.56 354.663 2053.44 339.75 2053.44 321.243H2052.44ZM1977.3 379.723V378.723C1955.03 378.723 1937 372.818 1924.55 362.753C1912.12 352.703 1905.2 338.455 1905.2 321.583H1904.2H1903.2C1903.2 339.051 1910.39 353.873 1923.29 364.308C1936.18 374.728 1954.69 380.723 1977.3 380.723V379.723ZM2080.48 417.803H2079.48V418.803H2080.48V417.803ZM2080.48 380.743V379.743H2079.48V380.743H2080.48ZM2230.42 380.743H2231.42V379.743H2230.42V380.743ZM2230.42 417.803V418.803H2231.42V417.803H2230.42ZM2080.48 417.803H2081.48V380.743H2080.48H2079.48V417.803H2080.48ZM2080.48 380.743V381.743H2230.42V380.743V379.743H2080.48V380.743ZM2230.42 380.743H2229.42V417.803H2230.42H2231.42V380.743H2230.42ZM2230.42 417.803V416.803H2080.48V417.803V418.803H2230.42V417.803Z" fill="black" mask="url(#path-2-outside-1_1_38)"/>
<path d="M628.1 531H612.8L652.4 422.55H668.75L708.5 531H693.05L683.3 504H637.7L628.1 531ZM658.7 445.95L642.2 491.25H678.95L662.3 445.95C661.55 443.85 660.8 441.3 660.5 439.65C660.2 441.15 659.45 443.7 658.7 445.95ZM724.933 494.4C724.933 471.45 739.483 455.55 760.933 455.55C779.383 455.55 792.283 466.05 794.833 482.4H780.733C778.333 473.1 770.833 468.15 761.383 468.15C748.033 468.15 738.883 478.35 738.883 494.25C738.883 510 747.433 520.2 760.783 520.2C770.833 520.2 778.333 514.95 780.883 506.25H794.983C792.133 522.15 778.483 532.8 760.783 532.8C739.183 532.8 724.933 517.5 724.933 494.4ZM843.31 532.8C827.56 532.8 818.26 523.95 818.26 510.6C818.26 497.1 828.31 488.7 845.56 487.35L868.66 485.55V483.45C868.66 471.15 861.31 466.8 851.41 466.8C839.56 466.8 832.81 472.05 832.81 480.9H820.51C820.51 465.6 833.11 455.55 852.01 455.55C870.16 455.55 882.46 465.15 882.46 484.95V531H870.46L868.96 519.15C865.21 527.55 855.16 532.8 843.31 532.8ZM847.36 521.85C860.71 521.85 868.81 513.15 868.81 499.35V495.45L850.06 496.95C837.61 498.15 832.51 502.95 832.51 510.15C832.51 517.95 838.21 521.85 847.36 521.85ZM943.387 532.8C922.087 532.8 909.187 516.9 909.187 494.55C909.187 472.05 922.237 455.55 943.987 455.55C955.237 455.55 964.687 460.5 969.637 469.5V420.6H983.587V531H970.987L969.787 517.65C964.987 527.7 955.087 532.8 943.387 532.8ZM946.237 520.05C960.637 520.05 969.487 509.4 969.487 494.1C969.487 479.1 960.637 468.3 946.237 468.3C931.837 468.3 923.437 479.1 923.437 494.1C923.437 509.25 931.837 520.05 946.237 520.05ZM1047.58 532.8C1025.98 532.8 1011.13 517.2 1011.13 494.4C1011.13 471.45 1025.68 455.55 1046.98 455.55C1067.83 455.55 1081.48 469.95 1081.48 491.7V496.95L1024.78 497.1C1025.83 512.55 1033.93 521.1 1047.88 521.1C1058.83 521.1 1066.03 516.6 1068.43 508.2H1081.63C1078.03 523.95 1065.73 532.8 1047.58 532.8ZM1046.98 467.4C1034.68 467.4 1026.88 474.75 1025.08 487.65H1067.38C1067.38 475.5 1059.43 467.4 1046.98 467.4ZM1123.33 531H1109.23V457.65H1121.83L1123.18 467.25C1126.93 460.35 1134.73 455.55 1145.08 455.55C1156.48 455.55 1164.58 461.25 1168.33 470.4C1171.78 461.25 1180.63 455.55 1192.03 455.55C1208.83 455.55 1219.03 466.05 1219.03 483V531H1205.23V486.45C1205.23 474.9 1198.78 468.3 1188.88 468.3C1178.23 468.3 1171.18 475.8 1171.18 487.5V531H1157.23V486.3C1157.23 474.75 1150.93 468.45 1141.03 468.45C1130.38 468.45 1123.33 475.8 1123.33 487.5V531ZM1242.06 563.85V552.3H1251.51C1258.26 552.3 1263.66 551.25 1267.11 541.95L1269.66 534.9L1240.11 457.65H1254.96L1276.26 516.75L1298.01 457.65H1312.56L1277.91 547.5C1272.96 560.1 1265.61 565.35 1254.36 565.35C1249.71 565.35 1245.81 564.75 1242.06 563.85Z" fill="white"/>
</g>
</svg>
